<?xml version="1.0" encoding="UTF-8"?>
<svg xmlns="http://www.w3.org/2000/svg" xmlns:xlink="http://www.w3.org/1999/xlink" version="1.1" viewBox="0 0 262.07 64.43">
  <defs>
    <style>
      .cls-1 {
        fill: #d9e021;
      }

      .cls-2 {
        fill: url(#_名称未設定グラデーション_3);
      }

      .cls-3 {
        fill: #fff;
      }

      .cls-4 {
        fill: #ff0;
      }

      .cls-5 {
        font-family: HiraMaruPro-W4-83pv-RKSJ-H, 'Hiragino Maru Gothic Pro';
        font-size: 37.82px;
      }

      .cls-6 {
        fill: url(#_名称未設定グラデーション_3-2);
      }

      .cls-7 {
        fill: #6c9;
      }

      .cls-8 {
        fill: #fbb03b;
      }
    </style>
    <linearGradient id="_名称未設定グラデーション_3" data-name="名称未設定グラデーション 3" x1="4017.2" y1="41.61" x2="4040.41" y2="41.61" gradientTransform="translate(4095.32) rotate(-180) scale(1 -1)" gradientUnits="userSpaceOnUse">
      <stop offset="0" stop-color="#6c3"/>
      <stop offset="1" stop-color="#efea3a"/>
    </linearGradient>
    <linearGradient id="_名称未設定グラデーション_3-2" data-name="名称未設定グラデーション 3" x1="55.66" y1="41.61" x2="78.87" y2="41.61" gradientTransform="translate(-34.36)" xlink:href="#_名称未設定グラデーション_3"/>
  </defs>
  <!-- Generator: Adobe Illustrator 28.7.1, SVG Export Plug-In . SVG Version: 1.2.0 Build 142)  -->
  <g>
    <g id="_レイヤー_1" data-name="レイヤー_1">
      <g>
        <text class="cls-5" transform="translate(110.78 50.48)"><tspan x="0" y="0">佐藤医院</tspan></text>
        <g>
          <ellipse class="cls-8" cx="49.47" cy="39.36" rx="26.48" ry="19.78"/>
          <polygon class="cls-3" points="40.23 36.28 46.39 36.28 46.39 30.13 52.55 30.13 52.55 36.28 58.71 36.28 58.71 42.45 52.55 42.44 52.55 48.6 46.39 48.6 46.39 42.44 40.23 42.42 40.23 36.28"/>
        </g>
        <circle class="cls-7" cx="4.43" cy="45.82" r="4.43"/>
        <circle class="cls-1" cx="10.44" cy="17.74" r="4.43"/>
        <circle class="cls-4" cx="49.49" cy="4.43" r="4.43"/>
        <circle class="cls-7" cx="94.73" cy="45.82" r="4.43"/>
        <circle class="cls-1" cx="88.81" cy="17.74" r="4.43"/>
        <path class="cls-2" d="M74.84,29.1c1.12,9.29-10,18.67-11.15,20.17-1.45,1.89-1.16,3.98-.34,5.61,1.1,2.2,3.31,2.75,5.51,2.75,3.86,0,6.18-1.65,7.16-4.41.61-1.71,0-2.2,0-2.2,0,0,1.99,2.2,2.09,4.41.12,2.75-1.09,5.28-3.74,6.61-2.2,1.1-3.86,1.1-6.06,1.1-1.65,0-3.86-.55-5.1-1.26-.9-.51-3.88-2.52-5.33-5.67-.71-1.53-1.57-5.09-.48-7.56,2.11-4.78,13.45-10.66,13-17.01-.37-5.21-4.56-6.32-6.21-6.32-3.88,0-7.27,1.78-7.27,6.3,0,1.26-2.86-4.61-1.74-6.63,1.64-2.96,5.43-5.43,10.94-4.82,4.96.55,8.26,4.96,8.74,8.93Z"/>
        <path class="cls-6" d="M24.57,29.1c-1.12,9.29,10,18.67,11.15,20.17,1.45,1.89,1.16,3.98.34,5.61-1.1,2.2-3.31,2.75-5.51,2.75-3.86,0-6.18-1.65-7.16-4.41-.61-1.71.29-2.75.29-2.75,0,0-2.28,2.75-2.38,4.96-.12,2.75,1.09,5.28,3.74,6.61,2.2,1.1,3.86,1.1,6.06,1.1,1.65,0,3.86-.55,5.1-1.26.9-.51,3.88-2.52,5.33-5.67.71-1.53,1.57-5.09.48-7.56-2.11-4.78-13.45-10.66-13-17.01.37-5.21,4.56-6.32,6.21-6.32,3.88,0,7.27,1.78,7.27,6.3,0,1.26,2.86-4.61,1.74-6.63-1.64-2.96-5.43-5.43-10.94-4.82-4.96.55-8.26,4.96-8.74,8.93Z"/>
      </g>
    </g>
  </g>
</svg>